<?xml version="1.0" encoding="utf-8" standalone="no"?>
<!DOCTYPE svg PUBLIC "-//W3C//DTD SVG 1.1//EN"
  "http://www.w3.org/Graphics/SVG/1.1/DTD/svg11.dtd">
<svg xmlns:xlink="http://www.w3.org/1999/xlink" width="5040pt" height="576pt" viewBox="0 0 5040 576" xmlns="http://www.w3.org/2000/svg" version="1.1">
 <metadata>
  <rdf:RDF xmlns:dc="http://purl.org/dc/elements/1.1/" xmlns:cc="http://creativecommons.org/ns#" xmlns:rdf="http://www.w3.org/1999/02/22-rdf-syntax-ns#">
   <cc:Work>
    <dc:type rdf:resource="http://purl.org/dc/dcmitype/StillImage"/>
    <dc:date>2023-07-05T13:02:35.168957</dc:date>
    <dc:format>image/svg+xml</dc:format>
    <dc:creator>
     <cc:Agent>
      <dc:title>Matplotlib v3.7.1, https://matplotlib.org/</dc:title>
     </cc:Agent>
    </dc:creator>
   </cc:Work>
  </rdf:RDF>
 </metadata>
 <defs>
  <style type="text/css">*{stroke-linejoin: round; stroke-linecap: butt}</style>
 </defs>
 <g id="figure_1">
  <g id="patch_1">
   <path d="M 0 576 
L 5040 576 
L 5040 0 
L 0 0 
L 0 576 
z
" style="fill: none"/>
  </g>
  <g id="axes_1">
   <g id="patch_2">
    <path d="M 630 504 
L 4536 504 
L 4536 69.12 
L 630 69.12 
z
" style="fill: #ffffff"/>
   </g>
   <g id="PathCollection_1">
    <defs>
     <path id="m486b062644" d="M 0 3 
C 0.795609 3 1.55874 2.683901 2.12132 2.12132 
C 2.683901 1.55874 3 0.795609 3 0 
C 3 -0.795609 2.683901 -1.55874 2.12132 -2.12132 
C 1.55874 -2.683901 0.795609 -3 0 -3 
C -0.795609 -3 -1.55874 -2.683901 -2.12132 -2.12132 
C -2.683901 -1.55874 -3 -0.795609 -3 0 
C -3 0.795609 -2.683901 1.55874 -2.12132 2.12132 
C -1.55874 2.683901 -0.795609 3 0 3 
z
" style="stroke: #1f77b4"/>
    </defs>
    <g clip-path="url(#pce22ad2d9c)">
     <use xlink:href="#m486b062644" x="807.545455" y="203.098182" style="fill: #1f77b4; stroke: #1f77b4"/>
     <use xlink:href="#m486b062644" x="815.561051" y="440.305455" style="fill: #1f77b4; stroke: #1f77b4"/>
     <use xlink:href="#m486b062644" x="823.576647" y="440.305455" style="fill: #1f77b4; stroke: #1f77b4"/>
     <use xlink:href="#m486b062644" x="831.592243" y="207.490909" style="fill: #1f77b4; stroke: #1f77b4"/>
     <use xlink:href="#m486b062644" x="839.607839" y="163.563636" style="fill: #1f77b4; stroke: #1f77b4"/>
     <use xlink:href="#m486b062644" x="847.623435" y="321.701818" style="fill: #1f77b4; stroke: #1f77b4"/>
     <use xlink:href="#m486b062644" x="855.639031" y="440.305455" style="fill: #1f77b4; stroke: #1f77b4"/>
     <use xlink:href="#m486b062644" x="863.654628" y="440.305455" style="fill: #1f77b4; stroke: #1f77b4"/>
     <use xlink:href="#m486b062644" x="871.670224" y="304.130909" style="fill: #1f77b4; stroke: #1f77b4"/>
     <use xlink:href="#m486b062644" x="879.68582" y="321.701818" style="fill: #1f77b4; stroke: #1f77b4"/>
     <use xlink:href="#m486b062644" x="887.701416" y="207.490909" style="fill: #1f77b4; stroke: #1f77b4"/>
     <use xlink:href="#m486b062644" x="895.717012" y="440.305455" style="fill: #1f77b4; stroke: #1f77b4"/>
     <use xlink:href="#m486b062644" x="903.732608" y="356.843636" style="fill: #1f77b4; stroke: #1f77b4"/>
     <use xlink:href="#m486b062644" x="911.748204" y="484.232727" style="fill: #1f77b4; stroke: #1f77b4"/>
     <use xlink:href="#m486b062644" x="919.763801" y="427.127273" style="fill: #1f77b4; stroke: #1f77b4"/>
     <use xlink:href="#m486b062644" x="927.779397" y="440.305455" style="fill: #1f77b4; stroke: #1f77b4"/>
     <use xlink:href="#m486b062644" x="935.794993" y="207.490909" style="fill: #1f77b4; stroke: #1f77b4"/>
     <use xlink:href="#m486b062644" x="943.810589" y="440.305455" style="fill: #1f77b4; stroke: #1f77b4"/>
     <use xlink:href="#m486b062644" x="951.826185" y="484.232727" style="fill: #1f77b4; stroke: #1f77b4"/>
     <use xlink:href="#m486b062644" x="959.841781" y="356.843636" style="fill: #1f77b4; stroke: #1f77b4"/>
     <use xlink:href="#m486b062644" x="967.857377" y="207.490909" style="fill: #1f77b4; stroke: #1f77b4"/>
     <use xlink:href="#m486b062644" x="975.872974" y="119.636364" style="fill: #1f77b4; stroke: #1f77b4"/>
     <use xlink:href="#m486b062644" x="983.88857" y="207.490909" style="fill: #1f77b4; stroke: #1f77b4"/>
     <use xlink:href="#m486b062644" x="991.904166" y="356.843636" style="fill: #1f77b4; stroke: #1f77b4"/>
     <use xlink:href="#m486b062644" x="999.919762" y="484.232727" style="fill: #1f77b4; stroke: #1f77b4"/>
     <use xlink:href="#m486b062644" x="1007.935358" y="321.701818" style="fill: #1f77b4; stroke: #1f77b4"/>
     <use xlink:href="#m486b062644" x="1015.950954" y="440.305455" style="fill: #1f77b4; stroke: #1f77b4"/>
     <use xlink:href="#m486b062644" x="1023.96655" y="304.130909" style="fill: #1f77b4; stroke: #1f77b4"/>
     <use xlink:href="#m486b062644" x="1031.982147" y="163.563636" style="fill: #1f77b4; stroke: #1f77b4"/>
     <use xlink:href="#m486b062644" x="1039.997743" y="440.305455" style="fill: #1f77b4; stroke: #1f77b4"/>
     <use xlink:href="#m486b062644" x="1048.013339" y="88.887273" style="fill: #1f77b4; stroke: #1f77b4"/>
     <use xlink:href="#m486b062644" x="1056.028935" y="427.127273" style="fill: #1f77b4; stroke: #1f77b4"/>
     <use xlink:href="#m486b062644" x="1064.044531" y="317.309091" style="fill: #1f77b4; stroke: #1f77b4"/>
     <use xlink:href="#m486b062644" x="1072.060127" y="343.665455" style="fill: #1f77b4; stroke: #1f77b4"/>
     <use xlink:href="#m486b062644" x="1080.075723" y="427.127273" style="fill: #1f77b4; stroke: #1f77b4"/>
     <use xlink:href="#m486b062644" x="1088.09132" y="356.843636" style="fill: #1f77b4; stroke: #1f77b4"/>
     <use xlink:href="#m486b062644" x="1096.106916" y="440.305455" style="fill: #1f77b4; stroke: #1f77b4"/>
     <use xlink:href="#m486b062644" x="1104.122512" y="163.563636" style="fill: #1f77b4; stroke: #1f77b4"/>
     <use xlink:href="#m486b062644" x="1112.138108" y="102.065455" style="fill: #1f77b4; stroke: #1f77b4"/>
     <use xlink:href="#m486b062644" x="1120.153704" y="207.490909" style="fill: #1f77b4; stroke: #1f77b4"/>
     <use xlink:href="#m486b062644" x="1128.1693" y="440.305455" style="fill: #1f77b4; stroke: #1f77b4"/>
     <use xlink:href="#m486b062644" x="1136.184896" y="356.843636" style="fill: #1f77b4; stroke: #1f77b4"/>
     <use xlink:href="#m486b062644" x="1144.200493" y="343.665455" style="fill: #1f77b4; stroke: #1f77b4"/>
     <use xlink:href="#m486b062644" x="1152.216089" y="356.843636" style="fill: #1f77b4; stroke: #1f77b4"/>
     <use xlink:href="#m486b062644" x="1160.231685" y="119.636364" style="fill: #1f77b4; stroke: #1f77b4"/>
     <use xlink:href="#m486b062644" x="1168.247281" y="119.636364" style="fill: #1f77b4; stroke: #1f77b4"/>
     <use xlink:href="#m486b062644" x="1176.262877" y="484.232727" style="fill: #1f77b4; stroke: #1f77b4"/>
     <use xlink:href="#m486b062644" x="1184.278473" y="119.636364" style="fill: #1f77b4; stroke: #1f77b4"/>
     <use xlink:href="#m486b062644" x="1192.294069" y="88.887273" style="fill: #1f77b4; stroke: #1f77b4"/>
     <use xlink:href="#m486b062644" x="1200.309666" y="484.232727" style="fill: #1f77b4; stroke: #1f77b4"/>
     <use xlink:href="#m486b062644" x="1208.325262" y="321.701818" style="fill: #1f77b4; stroke: #1f77b4"/>
     <use xlink:href="#m486b062644" x="1216.340858" y="484.232727" style="fill: #1f77b4; stroke: #1f77b4"/>
     <use xlink:href="#m486b062644" x="1224.356454" y="207.490909" style="fill: #1f77b4; stroke: #1f77b4"/>
     <use xlink:href="#m486b062644" x="1232.37205" y="356.843636" style="fill: #1f77b4; stroke: #1f77b4"/>
     <use xlink:href="#m486b062644" x="1240.387646" y="102.065455" style="fill: #1f77b4; stroke: #1f77b4"/>
     <use xlink:href="#m486b062644" x="1248.403242" y="176.741818" style="fill: #1f77b4; stroke: #1f77b4"/>
     <use xlink:href="#m486b062644" x="1256.418838" y="484.232727" style="fill: #1f77b4; stroke: #1f77b4"/>
     <use xlink:href="#m486b062644" x="1264.434435" y="440.305455" style="fill: #1f77b4; stroke: #1f77b4"/>
     <use xlink:href="#m486b062644" x="1272.450031" y="440.305455" style="fill: #1f77b4; stroke: #1f77b4"/>
     <use xlink:href="#m486b062644" x="1280.465627" y="207.490909" style="fill: #1f77b4; stroke: #1f77b4"/>
     <use xlink:href="#m486b062644" x="1288.481223" y="321.701818" style="fill: #1f77b4; stroke: #1f77b4"/>
     <use xlink:href="#m486b062644" x="1296.496819" y="88.887273" style="fill: #1f77b4; stroke: #1f77b4"/>
     <use xlink:href="#m486b062644" x="1304.512415" y="326.094545" style="fill: #1f77b4; stroke: #1f77b4"/>
     <use xlink:href="#m486b062644" x="1312.528011" y="326.094545" style="fill: #1f77b4; stroke: #1f77b4"/>
     <use xlink:href="#m486b062644" x="1320.543608" y="88.887273" style="fill: #1f77b4; stroke: #1f77b4"/>
     <use xlink:href="#m486b062644" x="1328.559204" y="321.701818" style="fill: #1f77b4; stroke: #1f77b4"/>
     <use xlink:href="#m486b062644" x="1336.5748" y="484.232727" style="fill: #1f77b4; stroke: #1f77b4"/>
     <use xlink:href="#m486b062644" x="1344.590396" y="343.665455" style="fill: #1f77b4; stroke: #1f77b4"/>
     <use xlink:href="#m486b062644" x="1352.605992" y="207.490909" style="fill: #1f77b4; stroke: #1f77b4"/>
     <use xlink:href="#m486b062644" x="1360.621588" y="440.305455" style="fill: #1f77b4; stroke: #1f77b4"/>
     <use xlink:href="#m486b062644" x="1368.637184" y="102.065455" style="fill: #1f77b4; stroke: #1f77b4"/>
     <use xlink:href="#m486b062644" x="1376.652781" y="321.701818" style="fill: #1f77b4; stroke: #1f77b4"/>
     <use xlink:href="#m486b062644" x="1384.668377" y="207.490909" style="fill: #1f77b4; stroke: #1f77b4"/>
     <use xlink:href="#m486b062644" x="1392.683973" y="176.741818" style="fill: #1f77b4; stroke: #1f77b4"/>
     <use xlink:href="#m486b062644" x="1400.699569" y="119.636364" style="fill: #1f77b4; stroke: #1f77b4"/>
     <use xlink:href="#m486b062644" x="1408.715165" y="484.232727" style="fill: #1f77b4; stroke: #1f77b4"/>
     <use xlink:href="#m486b062644" x="1416.730761" y="440.305455" style="fill: #1f77b4; stroke: #1f77b4"/>
     <use xlink:href="#m486b062644" x="1424.746357" y="484.232727" style="fill: #1f77b4; stroke: #1f77b4"/>
     <use xlink:href="#m486b062644" x="1432.761954" y="484.232727" style="fill: #1f77b4; stroke: #1f77b4"/>
     <use xlink:href="#m486b062644" x="1440.77755" y="163.563636" style="fill: #1f77b4; stroke: #1f77b4"/>
     <use xlink:href="#m486b062644" x="1448.793146" y="321.701818" style="fill: #1f77b4; stroke: #1f77b4"/>
     <use xlink:href="#m486b062644" x="1456.808742" y="207.490909" style="fill: #1f77b4; stroke: #1f77b4"/>
     <use xlink:href="#m486b062644" x="1464.824338" y="440.305455" style="fill: #1f77b4; stroke: #1f77b4"/>
     <use xlink:href="#m486b062644" x="1472.839934" y="356.843636" style="fill: #1f77b4; stroke: #1f77b4"/>
     <use xlink:href="#m486b062644" x="1480.85553" y="207.490909" style="fill: #1f77b4; stroke: #1f77b4"/>
     <use xlink:href="#m486b062644" x="1488.871127" y="484.232727" style="fill: #1f77b4; stroke: #1f77b4"/>
     <use xlink:href="#m486b062644" x="1496.886723" y="119.636364" style="fill: #1f77b4; stroke: #1f77b4"/>
     <use xlink:href="#m486b062644" x="1504.902319" y="304.130909" style="fill: #1f77b4; stroke: #1f77b4"/>
     <use xlink:href="#m486b062644" x="1512.917915" y="207.490909" style="fill: #1f77b4; stroke: #1f77b4"/>
     <use xlink:href="#m486b062644" x="1520.933511" y="207.490909" style="fill: #1f77b4; stroke: #1f77b4"/>
     <use xlink:href="#m486b062644" x="1528.949107" y="304.130909" style="fill: #1f77b4; stroke: #1f77b4"/>
     <use xlink:href="#m486b062644" x="1536.964703" y="102.065455" style="fill: #1f77b4; stroke: #1f77b4"/>
     <use xlink:href="#m486b062644" x="1544.9803" y="484.232727" style="fill: #1f77b4; stroke: #1f77b4"/>
     <use xlink:href="#m486b062644" x="1552.995896" y="440.305455" style="fill: #1f77b4; stroke: #1f77b4"/>
     <use xlink:href="#m486b062644" x="1561.011492" y="304.130909" style="fill: #1f77b4; stroke: #1f77b4"/>
     <use xlink:href="#m486b062644" x="1569.027088" y="304.130909" style="fill: #1f77b4; stroke: #1f77b4"/>
     <use xlink:href="#m486b062644" x="1577.042684" y="207.490909" style="fill: #1f77b4; stroke: #1f77b4"/>
     <use xlink:href="#m486b062644" x="1585.05828" y="321.701818" style="fill: #1f77b4; stroke: #1f77b4"/>
     <use xlink:href="#m486b062644" x="1593.073876" y="326.094545" style="fill: #1f77b4; stroke: #1f77b4"/>
     <use xlink:href="#m486b062644" x="1601.089473" y="163.563636" style="fill: #1f77b4; stroke: #1f77b4"/>
     <use xlink:href="#m486b062644" x="1609.105069" y="304.130909" style="fill: #1f77b4; stroke: #1f77b4"/>
     <use xlink:href="#m486b062644" x="1617.120665" y="427.127273" style="fill: #1f77b4; stroke: #1f77b4"/>
     <use xlink:href="#m486b062644" x="1625.136261" y="440.305455" style="fill: #1f77b4; stroke: #1f77b4"/>
     <use xlink:href="#m486b062644" x="1633.151857" y="440.305455" style="fill: #1f77b4; stroke: #1f77b4"/>
     <use xlink:href="#m486b062644" x="1641.167453" y="119.636364" style="fill: #1f77b4; stroke: #1f77b4"/>
     <use xlink:href="#m486b062644" x="1649.183049" y="440.305455" style="fill: #1f77b4; stroke: #1f77b4"/>
     <use xlink:href="#m486b062644" x="1657.198646" y="356.843636" style="fill: #1f77b4; stroke: #1f77b4"/>
     <use xlink:href="#m486b062644" x="1665.214242" y="119.636364" style="fill: #1f77b4; stroke: #1f77b4"/>
     <use xlink:href="#m486b062644" x="1673.229838" y="207.490909" style="fill: #1f77b4; stroke: #1f77b4"/>
     <use xlink:href="#m486b062644" x="1681.245434" y="484.232727" style="fill: #1f77b4; stroke: #1f77b4"/>
     <use xlink:href="#m486b062644" x="1689.26103" y="163.563636" style="fill: #1f77b4; stroke: #1f77b4"/>
     <use xlink:href="#m486b062644" x="1697.276626" y="343.665455" style="fill: #1f77b4; stroke: #1f77b4"/>
     <use xlink:href="#m486b062644" x="1705.292222" y="440.305455" style="fill: #1f77b4; stroke: #1f77b4"/>
     <use xlink:href="#m486b062644" x="1713.307819" y="440.305455" style="fill: #1f77b4; stroke: #1f77b4"/>
     <use xlink:href="#m486b062644" x="1721.323415" y="163.563636" style="fill: #1f77b4; stroke: #1f77b4"/>
     <use xlink:href="#m486b062644" x="1729.339011" y="203.098182" style="fill: #1f77b4; stroke: #1f77b4"/>
     <use xlink:href="#m486b062644" x="1737.354607" y="119.636364" style="fill: #1f77b4; stroke: #1f77b4"/>
     <use xlink:href="#m486b062644" x="1745.370203" y="163.563636" style="fill: #1f77b4; stroke: #1f77b4"/>
     <use xlink:href="#m486b062644" x="1753.385799" y="440.305455" style="fill: #1f77b4; stroke: #1f77b4"/>
     <use xlink:href="#m486b062644" x="1761.401395" y="440.305455" style="fill: #1f77b4; stroke: #1f77b4"/>
     <use xlink:href="#m486b062644" x="1769.416992" y="207.490909" style="fill: #1f77b4; stroke: #1f77b4"/>
     <use xlink:href="#m486b062644" x="1777.432588" y="356.843636" style="fill: #1f77b4; stroke: #1f77b4"/>
     <use xlink:href="#m486b062644" x="1785.448184" y="484.232727" style="fill: #1f77b4; stroke: #1f77b4"/>
     <use xlink:href="#m486b062644" x="1793.46378" y="427.127273" style="fill: #1f77b4; stroke: #1f77b4"/>
     <use xlink:href="#m486b062644" x="1801.479376" y="317.309091" style="fill: #1f77b4; stroke: #1f77b4"/>
     <use xlink:href="#m486b062644" x="1809.494972" y="484.232727" style="fill: #1f77b4; stroke: #1f77b4"/>
     <use xlink:href="#m486b062644" x="1817.510568" y="119.636364" style="fill: #1f77b4; stroke: #1f77b4"/>
     <use xlink:href="#m486b062644" x="1825.526165" y="484.232727" style="fill: #1f77b4; stroke: #1f77b4"/>
     <use xlink:href="#m486b062644" x="1833.541761" y="484.232727" style="fill: #1f77b4; stroke: #1f77b4"/>
     <use xlink:href="#m486b062644" x="1841.557357" y="119.636364" style="fill: #1f77b4; stroke: #1f77b4"/>
     <use xlink:href="#m486b062644" x="1849.572953" y="163.563636" style="fill: #1f77b4; stroke: #1f77b4"/>
     <use xlink:href="#m486b062644" x="1857.588549" y="207.490909" style="fill: #1f77b4; stroke: #1f77b4"/>
     <use xlink:href="#m486b062644" x="1865.604145" y="356.843636" style="fill: #1f77b4; stroke: #1f77b4"/>
     <use xlink:href="#m486b062644" x="1873.619741" y="207.490909" style="fill: #1f77b4; stroke: #1f77b4"/>
     <use xlink:href="#m486b062644" x="1881.635338" y="163.563636" style="fill: #1f77b4; stroke: #1f77b4"/>
     <use xlink:href="#m486b062644" x="1889.650934" y="304.130909" style="fill: #1f77b4; stroke: #1f77b4"/>
     <use xlink:href="#m486b062644" x="1897.66653" y="356.843636" style="fill: #1f77b4; stroke: #1f77b4"/>
     <use xlink:href="#m486b062644" x="1905.682126" y="440.305455" style="fill: #1f77b4; stroke: #1f77b4"/>
     <use xlink:href="#m486b062644" x="1913.697722" y="207.490909" style="fill: #1f77b4; stroke: #1f77b4"/>
     <use xlink:href="#m486b062644" x="1921.713318" y="102.065455" style="fill: #1f77b4; stroke: #1f77b4"/>
     <use xlink:href="#m486b062644" x="1929.728914" y="484.232727" style="fill: #1f77b4; stroke: #1f77b4"/>
     <use xlink:href="#m486b062644" x="1937.744511" y="484.232727" style="fill: #1f77b4; stroke: #1f77b4"/>
     <use xlink:href="#m486b062644" x="1945.760107" y="326.094545" style="fill: #1f77b4; stroke: #1f77b4"/>
     <use xlink:href="#m486b062644" x="1953.775703" y="440.305455" style="fill: #1f77b4; stroke: #1f77b4"/>
     <use xlink:href="#m486b062644" x="1961.791299" y="207.490909" style="fill: #1f77b4; stroke: #1f77b4"/>
     <use xlink:href="#m486b062644" x="1969.806895" y="484.232727" style="fill: #1f77b4; stroke: #1f77b4"/>
     <use xlink:href="#m486b062644" x="1977.822491" y="88.887273" style="fill: #1f77b4; stroke: #1f77b4"/>
     <use xlink:href="#m486b062644" x="1985.838087" y="440.305455" style="fill: #1f77b4; stroke: #1f77b4"/>
     <use xlink:href="#m486b062644" x="1993.853684" y="102.065455" style="fill: #1f77b4; stroke: #1f77b4"/>
     <use xlink:href="#m486b062644" x="2001.86928" y="119.636364" style="fill: #1f77b4; stroke: #1f77b4"/>
     <use xlink:href="#m486b062644" x="2009.884876" y="102.065455" style="fill: #1f77b4; stroke: #1f77b4"/>
     <use xlink:href="#m486b062644" x="2017.900472" y="440.305455" style="fill: #1f77b4; stroke: #1f77b4"/>
     <use xlink:href="#m486b062644" x="2025.916068" y="440.305455" style="fill: #1f77b4; stroke: #1f77b4"/>
     <use xlink:href="#m486b062644" x="2033.931664" y="119.636364" style="fill: #1f77b4; stroke: #1f77b4"/>
     <use xlink:href="#m486b062644" x="2041.94726" y="119.636364" style="fill: #1f77b4; stroke: #1f77b4"/>
     <use xlink:href="#m486b062644" x="2049.962857" y="440.305455" style="fill: #1f77b4; stroke: #1f77b4"/>
     <use xlink:href="#m486b062644" x="2057.978453" y="321.701818" style="fill: #1f77b4; stroke: #1f77b4"/>
     <use xlink:href="#m486b062644" x="2065.994049" y="119.636364" style="fill: #1f77b4; stroke: #1f77b4"/>
     <use xlink:href="#m486b062644" x="2074.009645" y="119.636364" style="fill: #1f77b4; stroke: #1f77b4"/>
     <use xlink:href="#m486b062644" x="2082.025241" y="440.305455" style="fill: #1f77b4; stroke: #1f77b4"/>
     <use xlink:href="#m486b062644" x="2090.040837" y="484.232727" style="fill: #1f77b4; stroke: #1f77b4"/>
     <use xlink:href="#m486b062644" x="2098.056433" y="484.232727" style="fill: #1f77b4; stroke: #1f77b4"/>
     <use xlink:href="#m486b062644" x="2106.07203" y="440.305455" style="fill: #1f77b4; stroke: #1f77b4"/>
     <use xlink:href="#m486b062644" x="2114.087626" y="356.843636" style="fill: #1f77b4; stroke: #1f77b4"/>
     <use xlink:href="#m486b062644" x="2122.103222" y="440.305455" style="fill: #1f77b4; stroke: #1f77b4"/>
     <use xlink:href="#m486b062644" x="2130.118818" y="119.636364" style="fill: #1f77b4; stroke: #1f77b4"/>
     <use xlink:href="#m486b062644" x="2138.134414" y="119.636364" style="fill: #1f77b4; stroke: #1f77b4"/>
     <use xlink:href="#m486b062644" x="2146.15001" y="484.232727" style="fill: #1f77b4; stroke: #1f77b4"/>
     <use xlink:href="#m486b062644" x="2154.165606" y="440.305455" style="fill: #1f77b4; stroke: #1f77b4"/>
     <use xlink:href="#m486b062644" x="2162.181203" y="163.563636" style="fill: #1f77b4; stroke: #1f77b4"/>
     <use xlink:href="#m486b062644" x="2170.196799" y="207.490909" style="fill: #1f77b4; stroke: #1f77b4"/>
     <use xlink:href="#m486b062644" x="2178.212395" y="440.305455" style="fill: #1f77b4; stroke: #1f77b4"/>
     <use xlink:href="#m486b062644" x="2186.227991" y="356.843636" style="fill: #1f77b4; stroke: #1f77b4"/>
     <use xlink:href="#m486b062644" x="2194.243587" y="119.636364" style="fill: #1f77b4; stroke: #1f77b4"/>
     <use xlink:href="#m486b062644" x="2202.259183" y="317.309091" style="fill: #1f77b4; stroke: #1f77b4"/>
     <use xlink:href="#m486b062644" x="2210.274779" y="88.887273" style="fill: #1f77b4; stroke: #1f77b4"/>
     <use xlink:href="#m486b062644" x="2218.290376" y="484.232727" style="fill: #1f77b4; stroke: #1f77b4"/>
     <use xlink:href="#m486b062644" x="2226.305972" y="102.065455" style="fill: #1f77b4; stroke: #1f77b4"/>
     <use xlink:href="#m486b062644" x="2234.321568" y="207.490909" style="fill: #1f77b4; stroke: #1f77b4"/>
     <use xlink:href="#m486b062644" x="2242.337164" y="207.490909" style="fill: #1f77b4; stroke: #1f77b4"/>
     <use xlink:href="#m486b062644" x="2250.35276" y="440.305455" style="fill: #1f77b4; stroke: #1f77b4"/>
     <use xlink:href="#m486b062644" x="2258.368356" y="119.636364" style="fill: #1f77b4; stroke: #1f77b4"/>
     <use xlink:href="#m486b062644" x="2266.383952" y="163.563636" style="fill: #1f77b4; stroke: #1f77b4"/>
     <use xlink:href="#m486b062644" x="2274.399549" y="304.130909" style="fill: #1f77b4; stroke: #1f77b4"/>
     <use xlink:href="#m486b062644" x="2282.415145" y="163.563636" style="fill: #1f77b4; stroke: #1f77b4"/>
     <use xlink:href="#m486b062644" x="2290.430741" y="356.843636" style="fill: #1f77b4; stroke: #1f77b4"/>
     <use xlink:href="#m486b062644" x="2298.446337" y="484.232727" style="fill: #1f77b4; stroke: #1f77b4"/>
     <use xlink:href="#m486b062644" x="2306.461933" y="440.305455" style="fill: #1f77b4; stroke: #1f77b4"/>
     <use xlink:href="#m486b062644" x="2314.477529" y="440.305455" style="fill: #1f77b4; stroke: #1f77b4"/>
     <use xlink:href="#m486b062644" x="2322.493125" y="317.309091" style="fill: #1f77b4; stroke: #1f77b4"/>
     <use xlink:href="#m486b062644" x="2330.508722" y="304.130909" style="fill: #1f77b4; stroke: #1f77b4"/>
     <use xlink:href="#m486b062644" x="2338.524318" y="440.305455" style="fill: #1f77b4; stroke: #1f77b4"/>
     <use xlink:href="#m486b062644" x="2346.539914" y="119.636364" style="fill: #1f77b4; stroke: #1f77b4"/>
     <use xlink:href="#m486b062644" x="2354.55551" y="119.636364" style="fill: #1f77b4; stroke: #1f77b4"/>
     <use xlink:href="#m486b062644" x="2362.571106" y="356.843636" style="fill: #1f77b4; stroke: #1f77b4"/>
     <use xlink:href="#m486b062644" x="2370.586702" y="326.094545" style="fill: #1f77b4; stroke: #1f77b4"/>
     <use xlink:href="#m486b062644" x="2378.602298" y="304.130909" style="fill: #1f77b4; stroke: #1f77b4"/>
     <use xlink:href="#m486b062644" x="2386.617895" y="484.232727" style="fill: #1f77b4; stroke: #1f77b4"/>
     <use xlink:href="#m486b062644" x="2394.633491" y="440.305455" style="fill: #1f77b4; stroke: #1f77b4"/>
     <use xlink:href="#m486b062644" x="2402.649087" y="119.636364" style="fill: #1f77b4; stroke: #1f77b4"/>
     <use xlink:href="#m486b062644" x="2410.664683" y="207.490909" style="fill: #1f77b4; stroke: #1f77b4"/>
     <use xlink:href="#m486b062644" x="2418.680279" y="207.490909" style="fill: #1f77b4; stroke: #1f77b4"/>
     <use xlink:href="#m486b062644" x="2426.695875" y="304.130909" style="fill: #1f77b4; stroke: #1f77b4"/>
     <use xlink:href="#m486b062644" x="2434.711471" y="119.636364" style="fill: #1f77b4; stroke: #1f77b4"/>
     <use xlink:href="#m486b062644" x="2442.727068" y="440.305455" style="fill: #1f77b4; stroke: #1f77b4"/>
     <use xlink:href="#m486b062644" x="2450.742664" y="119.636364" style="fill: #1f77b4; stroke: #1f77b4"/>
     <use xlink:href="#m486b062644" x="2458.75826" y="207.490909" style="fill: #1f77b4; stroke: #1f77b4"/>
     <use xlink:href="#m486b062644" x="2466.773856" y="207.490909" style="fill: #1f77b4; stroke: #1f77b4"/>
     <use xlink:href="#m486b062644" x="2474.789452" y="321.701818" style="fill: #1f77b4; stroke: #1f77b4"/>
     <use xlink:href="#m486b062644" x="2482.805048" y="427.127273" style="fill: #1f77b4; stroke: #1f77b4"/>
     <use xlink:href="#m486b062644" x="2490.820644" y="304.130909" style="fill: #1f77b4; stroke: #1f77b4"/>
     <use xlink:href="#m486b062644" x="2498.836241" y="440.305455" style="fill: #1f77b4; stroke: #1f77b4"/>
     <use xlink:href="#m486b062644" x="2506.851837" y="207.490909" style="fill: #1f77b4; stroke: #1f77b4"/>
     <use xlink:href="#m486b062644" x="2514.867433" y="304.130909" style="fill: #1f77b4; stroke: #1f77b4"/>
     <use xlink:href="#m486b062644" x="2522.883029" y="440.305455" style="fill: #1f77b4; stroke: #1f77b4"/>
     <use xlink:href="#m486b062644" x="2530.898625" y="88.887273" style="fill: #1f77b4; stroke: #1f77b4"/>
     <use xlink:href="#m486b062644" x="2538.914221" y="440.305455" style="fill: #1f77b4; stroke: #1f77b4"/>
     <use xlink:href="#m486b062644" x="2546.929817" y="484.232727" style="fill: #1f77b4; stroke: #1f77b4"/>
     <use xlink:href="#m486b062644" x="2554.945414" y="321.701818" style="fill: #1f77b4; stroke: #1f77b4"/>
     <use xlink:href="#m486b062644" x="2562.96101" y="207.490909" style="fill: #1f77b4; stroke: #1f77b4"/>
     <use xlink:href="#m486b062644" x="2570.976606" y="102.065455" style="fill: #1f77b4; stroke: #1f77b4"/>
     <use xlink:href="#m486b062644" x="2578.992202" y="207.490909" style="fill: #1f77b4; stroke: #1f77b4"/>
     <use xlink:href="#m486b062644" x="2587.007798" y="163.563636" style="fill: #1f77b4; stroke: #1f77b4"/>
     <use xlink:href="#m486b062644" x="2595.023394" y="321.701818" style="fill: #1f77b4; stroke: #1f77b4"/>
     <use xlink:href="#m486b062644" x="2603.03899" y="440.305455" style="fill: #1f77b4; stroke: #1f77b4"/>
     <use xlink:href="#m486b062644" x="2611.054586" y="343.665455" style="fill: #1f77b4; stroke: #1f77b4"/>
     <use xlink:href="#m486b062644" x="2619.070183" y="119.636364" style="fill: #1f77b4; stroke: #1f77b4"/>
     <use xlink:href="#m486b062644" x="2627.085779" y="440.305455" style="fill: #1f77b4; stroke: #1f77b4"/>
     <use xlink:href="#m486b062644" x="2635.101375" y="484.232727" style="fill: #1f77b4; stroke: #1f77b4"/>
     <use xlink:href="#m486b062644" x="2643.116971" y="440.305455" style="fill: #1f77b4; stroke: #1f77b4"/>
     <use xlink:href="#m486b062644" x="2651.132567" y="207.490909" style="fill: #1f77b4; stroke: #1f77b4"/>
     <use xlink:href="#m486b062644" x="2659.148163" y="484.232727" style="fill: #1f77b4; stroke: #1f77b4"/>
     <use xlink:href="#m486b062644" x="2667.163759" y="304.130909" style="fill: #1f77b4; stroke: #1f77b4"/>
     <use xlink:href="#m486b062644" x="2675.179356" y="326.094545" style="fill: #1f77b4; stroke: #1f77b4"/>
     <use xlink:href="#m486b062644" x="2683.194952" y="321.701818" style="fill: #1f77b4; stroke: #1f77b4"/>
     <use xlink:href="#m486b062644" x="2691.210548" y="440.305455" style="fill: #1f77b4; stroke: #1f77b4"/>
     <use xlink:href="#m486b062644" x="2699.226144" y="304.130909" style="fill: #1f77b4; stroke: #1f77b4"/>
     <use xlink:href="#m486b062644" x="2707.24174" y="321.701818" style="fill: #1f77b4; stroke: #1f77b4"/>
     <use xlink:href="#m486b062644" x="2715.257336" y="321.701818" style="fill: #1f77b4; stroke: #1f77b4"/>
     <use xlink:href="#m486b062644" x="2723.272932" y="484.232727" style="fill: #1f77b4; stroke: #1f77b4"/>
     <use xlink:href="#m486b062644" x="2731.288529" y="356.843636" style="fill: #1f77b4; stroke: #1f77b4"/>
     <use xlink:href="#m486b062644" x="2739.304125" y="356.843636" style="fill: #1f77b4; stroke: #1f77b4"/>
     <use xlink:href="#m486b062644" x="2747.319721" y="321.701818" style="fill: #1f77b4; stroke: #1f77b4"/>
     <use xlink:href="#m486b062644" x="2755.335317" y="304.130909" style="fill: #1f77b4; stroke: #1f77b4"/>
     <use xlink:href="#m486b062644" x="2763.350913" y="207.490909" style="fill: #1f77b4; stroke: #1f77b4"/>
     <use xlink:href="#m486b062644" x="2771.366509" y="207.490909" style="fill: #1f77b4; stroke: #1f77b4"/>
     <use xlink:href="#m486b062644" x="2779.382105" y="356.843636" style="fill: #1f77b4; stroke: #1f77b4"/>
     <use xlink:href="#m486b062644" x="2787.397702" y="321.701818" style="fill: #1f77b4; stroke: #1f77b4"/>
     <use xlink:href="#m486b062644" x="2795.413298" y="88.887273" style="fill: #1f77b4; stroke: #1f77b4"/>
     <use xlink:href="#m486b062644" x="2803.428894" y="119.636364" style="fill: #1f77b4; stroke: #1f77b4"/>
     <use xlink:href="#m486b062644" x="2811.44449" y="440.305455" style="fill: #1f77b4; stroke: #1f77b4"/>
     <use xlink:href="#m486b062644" x="2819.460086" y="304.130909" style="fill: #1f77b4; stroke: #1f77b4"/>
     <use xlink:href="#m486b062644" x="2827.475682" y="207.490909" style="fill: #1f77b4; stroke: #1f77b4"/>
     <use xlink:href="#m486b062644" x="2835.491278" y="207.490909" style="fill: #1f77b4; stroke: #1f77b4"/>
     <use xlink:href="#m486b062644" x="2843.506875" y="203.098182" style="fill: #1f77b4; stroke: #1f77b4"/>
     <use xlink:href="#m486b062644" x="2851.522471" y="119.636364" style="fill: #1f77b4; stroke: #1f77b4"/>
     <use xlink:href="#m486b062644" x="2859.538067" y="440.305455" style="fill: #1f77b4; stroke: #1f77b4"/>
     <use xlink:href="#m486b062644" x="2867.553663" y="207.490909" style="fill: #1f77b4; stroke: #1f77b4"/>
     <use xlink:href="#m486b062644" x="2875.569259" y="304.130909" style="fill: #1f77b4; stroke: #1f77b4"/>
     <use xlink:href="#m486b062644" x="2883.584855" y="119.636364" style="fill: #1f77b4; stroke: #1f77b4"/>
     <use xlink:href="#m486b062644" x="2891.600451" y="304.130909" style="fill: #1f77b4; stroke: #1f77b4"/>
     <use xlink:href="#m486b062644" x="2899.616048" y="119.636364" style="fill: #1f77b4; stroke: #1f77b4"/>
     <use xlink:href="#m486b062644" x="2907.631644" y="440.305455" style="fill: #1f77b4; stroke: #1f77b4"/>
     <use xlink:href="#m486b062644" x="2915.64724" y="440.305455" style="fill: #1f77b4; stroke: #1f77b4"/>
     <use xlink:href="#m486b062644" x="2923.662836" y="119.636364" style="fill: #1f77b4; stroke: #1f77b4"/>
     <use xlink:href="#m486b062644" x="2931.678432" y="102.065455" style="fill: #1f77b4; stroke: #1f77b4"/>
     <use xlink:href="#m486b062644" x="2939.694028" y="207.490909" style="fill: #1f77b4; stroke: #1f77b4"/>
     <use xlink:href="#m486b062644" x="2947.709624" y="207.490909" style="fill: #1f77b4; stroke: #1f77b4"/>
     <use xlink:href="#m486b062644" x="2955.725221" y="343.665455" style="fill: #1f77b4; stroke: #1f77b4"/>
     <use xlink:href="#m486b062644" x="2963.740817" y="207.490909" style="fill: #1f77b4; stroke: #1f77b4"/>
     <use xlink:href="#m486b062644" x="2971.756413" y="203.098182" style="fill: #1f77b4; stroke: #1f77b4"/>
     <use xlink:href="#m486b062644" x="2979.772009" y="102.065455" style="fill: #1f77b4; stroke: #1f77b4"/>
     <use xlink:href="#m486b062644" x="2987.787605" y="163.563636" style="fill: #1f77b4; stroke: #1f77b4"/>
     <use xlink:href="#m486b062644" x="2995.803201" y="203.098182" style="fill: #1f77b4; stroke: #1f77b4"/>
     <use xlink:href="#m486b062644" x="3003.818797" y="207.490909" style="fill: #1f77b4; stroke: #1f77b4"/>
     <use xlink:href="#m486b062644" x="3011.834394" y="207.490909" style="fill: #1f77b4; stroke: #1f77b4"/>
     <use xlink:href="#m486b062644" x="3019.84999" y="163.563636" style="fill: #1f77b4; stroke: #1f77b4"/>
     <use xlink:href="#m486b062644" x="3027.865586" y="440.305455" style="fill: #1f77b4; stroke: #1f77b4"/>
     <use xlink:href="#m486b062644" x="3035.881182" y="317.309091" style="fill: #1f77b4; stroke: #1f77b4"/>
     <use xlink:href="#m486b062644" x="3043.896778" y="317.309091" style="fill: #1f77b4; stroke: #1f77b4"/>
     <use xlink:href="#m486b062644" x="3051.912374" y="88.887273" style="fill: #1f77b4; stroke: #1f77b4"/>
     <use xlink:href="#m486b062644" x="3059.92797" y="321.701818" style="fill: #1f77b4; stroke: #1f77b4"/>
     <use xlink:href="#m486b062644" x="3067.943567" y="203.098182" style="fill: #1f77b4; stroke: #1f77b4"/>
     <use xlink:href="#m486b062644" x="3075.959163" y="102.065455" style="fill: #1f77b4; stroke: #1f77b4"/>
     <use xlink:href="#m486b062644" x="3083.974759" y="304.130909" style="fill: #1f77b4; stroke: #1f77b4"/>
     <use xlink:href="#m486b062644" x="3091.990355" y="440.305455" style="fill: #1f77b4; stroke: #1f77b4"/>
     <use xlink:href="#m486b062644" x="3100.005951" y="207.490909" style="fill: #1f77b4; stroke: #1f77b4"/>
     <use xlink:href="#m486b062644" x="3108.021547" y="317.309091" style="fill: #1f77b4; stroke: #1f77b4"/>
     <use xlink:href="#m486b062644" x="3116.037143" y="119.636364" style="fill: #1f77b4; stroke: #1f77b4"/>
     <use xlink:href="#m486b062644" x="3124.05274" y="207.490909" style="fill: #1f77b4; stroke: #1f77b4"/>
     <use xlink:href="#m486b062644" x="3132.068336" y="119.636364" style="fill: #1f77b4; stroke: #1f77b4"/>
     <use xlink:href="#m486b062644" x="3140.083932" y="119.636364" style="fill: #1f77b4; stroke: #1f77b4"/>
     <use xlink:href="#m486b062644" x="3148.099528" y="317.309091" style="fill: #1f77b4; stroke: #1f77b4"/>
     <use xlink:href="#m486b062644" x="3156.115124" y="427.127273" style="fill: #1f77b4; stroke: #1f77b4"/>
     <use xlink:href="#m486b062644" x="3164.13072" y="356.843636" style="fill: #1f77b4; stroke: #1f77b4"/>
     <use xlink:href="#m486b062644" x="3172.146316" y="440.305455" style="fill: #1f77b4; stroke: #1f77b4"/>
     <use xlink:href="#m486b062644" x="3180.161913" y="440.305455" style="fill: #1f77b4; stroke: #1f77b4"/>
     <use xlink:href="#m486b062644" x="3188.177509" y="119.636364" style="fill: #1f77b4; stroke: #1f77b4"/>
     <use xlink:href="#m486b062644" x="3196.193105" y="440.305455" style="fill: #1f77b4; stroke: #1f77b4"/>
     <use xlink:href="#m486b062644" x="3204.208701" y="119.636364" style="fill: #1f77b4; stroke: #1f77b4"/>
     <use xlink:href="#m486b062644" x="3212.224297" y="119.636364" style="fill: #1f77b4; stroke: #1f77b4"/>
     <use xlink:href="#m486b062644" x="3220.239893" y="484.232727" style="fill: #1f77b4; stroke: #1f77b4"/>
     <use xlink:href="#m486b062644" x="3228.255489" y="484.232727" style="fill: #1f77b4; stroke: #1f77b4"/>
     <use xlink:href="#m486b062644" x="3236.271086" y="176.741818" style="fill: #1f77b4; stroke: #1f77b4"/>
     <use xlink:href="#m486b062644" x="3244.286682" y="356.843636" style="fill: #1f77b4; stroke: #1f77b4"/>
     <use xlink:href="#m486b062644" x="3252.302278" y="440.305455" style="fill: #1f77b4; stroke: #1f77b4"/>
     <use xlink:href="#m486b062644" x="3260.317874" y="119.636364" style="fill: #1f77b4; stroke: #1f77b4"/>
     <use xlink:href="#m486b062644" x="3268.33347" y="207.490909" style="fill: #1f77b4; stroke: #1f77b4"/>
     <use xlink:href="#m486b062644" x="3276.349066" y="207.490909" style="fill: #1f77b4; stroke: #1f77b4"/>
     <use xlink:href="#m486b062644" x="3284.364662" y="440.305455" style="fill: #1f77b4; stroke: #1f77b4"/>
     <use xlink:href="#m486b062644" x="3292.380259" y="207.490909" style="fill: #1f77b4; stroke: #1f77b4"/>
     <use xlink:href="#m486b062644" x="3300.395855" y="102.065455" style="fill: #1f77b4; stroke: #1f77b4"/>
     <use xlink:href="#m486b062644" x="3308.411451" y="440.305455" style="fill: #1f77b4; stroke: #1f77b4"/>
     <use xlink:href="#m486b062644" x="3316.427047" y="440.305455" style="fill: #1f77b4; stroke: #1f77b4"/>
     <use xlink:href="#m486b062644" x="3324.442643" y="119.636364" style="fill: #1f77b4; stroke: #1f77b4"/>
     <use xlink:href="#m486b062644" x="3332.458239" y="119.636364" style="fill: #1f77b4; stroke: #1f77b4"/>
     <use xlink:href="#m486b062644" x="3340.473835" y="484.232727" style="fill: #1f77b4; stroke: #1f77b4"/>
     <use xlink:href="#m486b062644" x="3348.489432" y="163.563636" style="fill: #1f77b4; stroke: #1f77b4"/>
     <use xlink:href="#m486b062644" x="3356.505028" y="440.305455" style="fill: #1f77b4; stroke: #1f77b4"/>
     <use xlink:href="#m486b062644" x="3364.520624" y="304.130909" style="fill: #1f77b4; stroke: #1f77b4"/>
     <use xlink:href="#m486b062644" x="3372.53622" y="207.490909" style="fill: #1f77b4; stroke: #1f77b4"/>
     <use xlink:href="#m486b062644" x="3380.551816" y="102.065455" style="fill: #1f77b4; stroke: #1f77b4"/>
     <use xlink:href="#m486b062644" x="3388.567412" y="484.232727" style="fill: #1f77b4; stroke: #1f77b4"/>
     <use xlink:href="#m486b062644" x="3396.583008" y="304.130909" style="fill: #1f77b4; stroke: #1f77b4"/>
     <use xlink:href="#m486b062644" x="3404.598605" y="304.130909" style="fill: #1f77b4; stroke: #1f77b4"/>
     <use xlink:href="#m486b062644" x="3412.614201" y="102.065455" style="fill: #1f77b4; stroke: #1f77b4"/>
     <use xlink:href="#m486b062644" x="3420.629797" y="484.232727" style="fill: #1f77b4; stroke: #1f77b4"/>
     <use xlink:href="#m486b062644" x="3428.645393" y="176.741818" style="fill: #1f77b4; stroke: #1f77b4"/>
     <use xlink:href="#m486b062644" x="3436.660989" y="317.309091" style="fill: #1f77b4; stroke: #1f77b4"/>
     <use xlink:href="#m486b062644" x="3444.676585" y="119.636364" style="fill: #1f77b4; stroke: #1f77b4"/>
     <use xlink:href="#m486b062644" x="3452.692181" y="440.305455" style="fill: #1f77b4; stroke: #1f77b4"/>
     <use xlink:href="#m486b062644" x="3460.707778" y="440.305455" style="fill: #1f77b4; stroke: #1f77b4"/>
     <use xlink:href="#m486b062644" x="3468.723374" y="102.065455" style="fill: #1f77b4; stroke: #1f77b4"/>
     <use xlink:href="#m486b062644" x="3476.73897" y="440.305455" style="fill: #1f77b4; stroke: #1f77b4"/>
     <use xlink:href="#m486b062644" x="3484.754566" y="88.887273" style="fill: #1f77b4; stroke: #1f77b4"/>
     <use xlink:href="#m486b062644" x="3492.770162" y="304.130909" style="fill: #1f77b4; stroke: #1f77b4"/>
     <use xlink:href="#m486b062644" x="3500.785758" y="304.130909" style="fill: #1f77b4; stroke: #1f77b4"/>
     <use xlink:href="#m486b062644" x="3508.801354" y="440.305455" style="fill: #1f77b4; stroke: #1f77b4"/>
     <use xlink:href="#m486b062644" x="3516.816951" y="484.232727" style="fill: #1f77b4; stroke: #1f77b4"/>
     <use xlink:href="#m486b062644" x="3524.832547" y="88.887273" style="fill: #1f77b4; stroke: #1f77b4"/>
     <use xlink:href="#m486b062644" x="3532.848143" y="356.843636" style="fill: #1f77b4; stroke: #1f77b4"/>
     <use xlink:href="#m486b062644" x="3540.863739" y="356.843636" style="fill: #1f77b4; stroke: #1f77b4"/>
     <use xlink:href="#m486b062644" x="3548.879335" y="304.130909" style="fill: #1f77b4; stroke: #1f77b4"/>
     <use xlink:href="#m486b062644" x="3556.894931" y="440.305455" style="fill: #1f77b4; stroke: #1f77b4"/>
     <use xlink:href="#m486b062644" x="3564.910527" y="457.876364" style="fill: #1f77b4; stroke: #1f77b4"/>
     <use xlink:href="#m486b062644" x="3572.926124" y="102.065455" style="fill: #1f77b4; stroke: #1f77b4"/>
     <use xlink:href="#m486b062644" x="3580.94172" y="326.094545" style="fill: #1f77b4; stroke: #1f77b4"/>
     <use xlink:href="#m486b062644" x="3588.957316" y="119.636364" style="fill: #1f77b4; stroke: #1f77b4"/>
     <use xlink:href="#m486b062644" x="3596.972912" y="321.701818" style="fill: #1f77b4; stroke: #1f77b4"/>
     <use xlink:href="#m486b062644" x="3604.988508" y="163.563636" style="fill: #1f77b4; stroke: #1f77b4"/>
     <use xlink:href="#m486b062644" x="3613.004104" y="119.636364" style="fill: #1f77b4; stroke: #1f77b4"/>
     <use xlink:href="#m486b062644" x="3621.0197" y="207.490909" style="fill: #1f77b4; stroke: #1f77b4"/>
     <use xlink:href="#m486b062644" x="3629.035297" y="207.490909" style="fill: #1f77b4; stroke: #1f77b4"/>
     <use xlink:href="#m486b062644" x="3637.050893" y="440.305455" style="fill: #1f77b4; stroke: #1f77b4"/>
     <use xlink:href="#m486b062644" x="3645.066489" y="484.232727" style="fill: #1f77b4; stroke: #1f77b4"/>
     <use xlink:href="#m486b062644" x="3653.082085" y="440.305455" style="fill: #1f77b4; stroke: #1f77b4"/>
     <use xlink:href="#m486b062644" x="3661.097681" y="356.843636" style="fill: #1f77b4; stroke: #1f77b4"/>
     <use xlink:href="#m486b062644" x="3669.113277" y="440.305455" style="fill: #1f77b4; stroke: #1f77b4"/>
     <use xlink:href="#m486b062644" x="3677.128873" y="203.098182" style="fill: #1f77b4; stroke: #1f77b4"/>
     <use xlink:href="#m486b062644" x="3685.14447" y="163.563636" style="fill: #1f77b4; stroke: #1f77b4"/>
     <use xlink:href="#m486b062644" x="3693.160066" y="207.490909" style="fill: #1f77b4; stroke: #1f77b4"/>
     <use xlink:href="#m486b062644" x="3701.175662" y="207.490909" style="fill: #1f77b4; stroke: #1f77b4"/>
     <use xlink:href="#m486b062644" x="3709.191258" y="356.843636" style="fill: #1f77b4; stroke: #1f77b4"/>
     <use xlink:href="#m486b062644" x="3717.206854" y="440.305455" style="fill: #1f77b4; stroke: #1f77b4"/>
     <use xlink:href="#m486b062644" x="3725.22245" y="484.232727" style="fill: #1f77b4; stroke: #1f77b4"/>
     <use xlink:href="#m486b062644" x="3733.238046" y="119.636364" style="fill: #1f77b4; stroke: #1f77b4"/>
     <use xlink:href="#m486b062644" x="3741.253643" y="440.305455" style="fill: #1f77b4; stroke: #1f77b4"/>
     <use xlink:href="#m486b062644" x="3749.269239" y="119.636364" style="fill: #1f77b4; stroke: #1f77b4"/>
     <use xlink:href="#m486b062644" x="3757.284835" y="440.305455" style="fill: #1f77b4; stroke: #1f77b4"/>
     <use xlink:href="#m486b062644" x="3765.300431" y="484.232727" style="fill: #1f77b4; stroke: #1f77b4"/>
     <use xlink:href="#m486b062644" x="3773.316027" y="207.490909" style="fill: #1f77b4; stroke: #1f77b4"/>
     <use xlink:href="#m486b062644" x="3781.331623" y="440.305455" style="fill: #1f77b4; stroke: #1f77b4"/>
     <use xlink:href="#m486b062644" x="3789.347219" y="207.490909" style="fill: #1f77b4; stroke: #1f77b4"/>
     <use xlink:href="#m486b062644" x="3797.362816" y="457.876364" style="fill: #1f77b4; stroke: #1f77b4"/>
     <use xlink:href="#m486b062644" x="3805.378412" y="440.305455" style="fill: #1f77b4; stroke: #1f77b4"/>
     <use xlink:href="#m486b062644" x="3813.394008" y="427.127273" style="fill: #1f77b4; stroke: #1f77b4"/>
     <use xlink:href="#m486b062644" x="3821.409604" y="102.065455" style="fill: #1f77b4; stroke: #1f77b4"/>
     <use xlink:href="#m486b062644" x="3829.4252" y="207.490909" style="fill: #1f77b4; stroke: #1f77b4"/>
     <use xlink:href="#m486b062644" x="3837.440796" y="163.563636" style="fill: #1f77b4; stroke: #1f77b4"/>
     <use xlink:href="#m486b062644" x="3845.456392" y="207.490909" style="fill: #1f77b4; stroke: #1f77b4"/>
     <use xlink:href="#m486b062644" x="3853.471989" y="427.127273" style="fill: #1f77b4; stroke: #1f77b4"/>
     <use xlink:href="#m486b062644" x="3861.487585" y="304.130909" style="fill: #1f77b4; stroke: #1f77b4"/>
     <use xlink:href="#m486b062644" x="3869.503181" y="356.843636" style="fill: #1f77b4; stroke: #1f77b4"/>
     <use xlink:href="#m486b062644" x="3877.518777" y="427.127273" style="fill: #1f77b4; stroke: #1f77b4"/>
     <use xlink:href="#m486b062644" x="3885.534373" y="343.665455" style="fill: #1f77b4; stroke: #1f77b4"/>
     <use xlink:href="#m486b062644" x="3893.549969" y="176.741818" style="fill: #1f77b4; stroke: #1f77b4"/>
     <use xlink:href="#m486b062644" x="3901.565565" y="119.636364" style="fill: #1f77b4; stroke: #1f77b4"/>
     <use xlink:href="#m486b062644" x="3909.581162" y="304.130909" style="fill: #1f77b4; stroke: #1f77b4"/>
     <use xlink:href="#m486b062644" x="3917.596758" y="207.490909" style="fill: #1f77b4; stroke: #1f77b4"/>
     <use xlink:href="#m486b062644" x="3925.612354" y="343.665455" style="fill: #1f77b4; stroke: #1f77b4"/>
     <use xlink:href="#m486b062644" x="3933.62795" y="119.636364" style="fill: #1f77b4; stroke: #1f77b4"/>
     <use xlink:href="#m486b062644" x="3941.643546" y="207.490909" style="fill: #1f77b4; stroke: #1f77b4"/>
     <use xlink:href="#m486b062644" x="3949.659142" y="484.232727" style="fill: #1f77b4; stroke: #1f77b4"/>
     <use xlink:href="#m486b062644" x="3957.674738" y="119.636364" style="fill: #1f77b4; stroke: #1f77b4"/>
     <use xlink:href="#m486b062644" x="3965.690334" y="440.305455" style="fill: #1f77b4; stroke: #1f77b4"/>
     <use xlink:href="#m486b062644" x="3973.705931" y="119.636364" style="fill: #1f77b4; stroke: #1f77b4"/>
     <use xlink:href="#m486b062644" x="3981.721527" y="440.305455" style="fill: #1f77b4; stroke: #1f77b4"/>
     <use xlink:href="#m486b062644" x="3989.737123" y="176.741818" style="fill: #1f77b4; stroke: #1f77b4"/>
     <use xlink:href="#m486b062644" x="3997.752719" y="207.490909" style="fill: #1f77b4; stroke: #1f77b4"/>
     <use xlink:href="#m486b062644" x="4005.768315" y="119.636364" style="fill: #1f77b4; stroke: #1f77b4"/>
     <use xlink:href="#m486b062644" x="4013.783911" y="484.232727" style="fill: #1f77b4; stroke: #1f77b4"/>
     <use xlink:href="#m486b062644" x="4021.799507" y="304.130909" style="fill: #1f77b4; stroke: #1f77b4"/>
     <use xlink:href="#m486b062644" x="4029.815104" y="119.636364" style="fill: #1f77b4; stroke: #1f77b4"/>
     <use xlink:href="#m486b062644" x="4037.8307" y="102.065455" style="fill: #1f77b4; stroke: #1f77b4"/>
     <use xlink:href="#m486b062644" x="4045.846296" y="484.232727" style="fill: #1f77b4; stroke: #1f77b4"/>
     <use xlink:href="#m486b062644" x="4053.861892" y="484.232727" style="fill: #1f77b4; stroke: #1f77b4"/>
     <use xlink:href="#m486b062644" x="4061.877488" y="484.232727" style="fill: #1f77b4; stroke: #1f77b4"/>
     <use xlink:href="#m486b062644" x="4069.893084" y="163.563636" style="fill: #1f77b4; stroke: #1f77b4"/>
     <use xlink:href="#m486b062644" x="4077.90868" y="207.490909" style="fill: #1f77b4; stroke: #1f77b4"/>
     <use xlink:href="#m486b062644" x="4085.924277" y="119.636364" style="fill: #1f77b4; stroke: #1f77b4"/>
     <use xlink:href="#m486b062644" x="4093.939873" y="207.490909" style="fill: #1f77b4; stroke: #1f77b4"/>
     <use xlink:href="#m486b062644" x="4101.955469" y="321.701818" style="fill: #1f77b4; stroke: #1f77b4"/>
     <use xlink:href="#m486b062644" x="4109.971065" y="440.305455" style="fill: #1f77b4; stroke: #1f77b4"/>
     <use xlink:href="#m486b062644" x="4117.986661" y="356.843636" style="fill: #1f77b4; stroke: #1f77b4"/>
     <use xlink:href="#m486b062644" x="4126.002257" y="317.309091" style="fill: #1f77b4; stroke: #1f77b4"/>
     <use xlink:href="#m486b062644" x="4134.017853" y="440.305455" style="fill: #1f77b4; stroke: #1f77b4"/>
     <use xlink:href="#m486b062644" x="4142.03345" y="119.636364" style="fill: #1f77b4; stroke: #1f77b4"/>
     <use xlink:href="#m486b062644" x="4150.049046" y="484.232727" style="fill: #1f77b4; stroke: #1f77b4"/>
     <use xlink:href="#m486b062644" x="4158.064642" y="326.094545" style="fill: #1f77b4; stroke: #1f77b4"/>
     <use xlink:href="#m486b062644" x="4166.080238" y="484.232727" style="fill: #1f77b4; stroke: #1f77b4"/>
     <use xlink:href="#m486b062644" x="4174.095834" y="484.232727" style="fill: #1f77b4; stroke: #1f77b4"/>
     <use xlink:href="#m486b062644" x="4182.11143" y="321.701818" style="fill: #1f77b4; stroke: #1f77b4"/>
     <use xlink:href="#m486b062644" x="4190.127026" y="321.701818" style="fill: #1f77b4; stroke: #1f77b4"/>
     <use xlink:href="#m486b062644" x="4198.142623" y="102.065455" style="fill: #1f77b4; stroke: #1f77b4"/>
     <use xlink:href="#m486b062644" x="4206.158219" y="163.563636" style="fill: #1f77b4; stroke: #1f77b4"/>
     <use xlink:href="#m486b062644" x="4214.173815" y="484.232727" style="fill: #1f77b4; stroke: #1f77b4"/>
     <use xlink:href="#m486b062644" x="4222.189411" y="317.309091" style="fill: #1f77b4; stroke: #1f77b4"/>
     <use xlink:href="#m486b062644" x="4230.205007" y="119.636364" style="fill: #1f77b4; stroke: #1f77b4"/>
     <use xlink:href="#m486b062644" x="4238.220603" y="440.305455" style="fill: #1f77b4; stroke: #1f77b4"/>
     <use xlink:href="#m486b062644" x="4246.236199" y="484.232727" style="fill: #1f77b4; stroke: #1f77b4"/>
     <use xlink:href="#m486b062644" x="4254.251796" y="119.636364" style="fill: #1f77b4; stroke: #1f77b4"/>
     <use xlink:href="#m486b062644" x="4262.267392" y="356.843636" style="fill: #1f77b4; stroke: #1f77b4"/>
     <use xlink:href="#m486b062644" x="4270.282988" y="88.887273" style="fill: #1f77b4; stroke: #1f77b4"/>
     <use xlink:href="#m486b062644" x="4278.298584" y="102.065455" style="fill: #1f77b4; stroke: #1f77b4"/>
     <use xlink:href="#m486b062644" x="4286.31418" y="356.843636" style="fill: #1f77b4; stroke: #1f77b4"/>
     <use xlink:href="#m486b062644" x="4294.329776" y="440.305455" style="fill: #1f77b4; stroke: #1f77b4"/>
     <use xlink:href="#m486b062644" x="4302.345372" y="304.130909" style="fill: #1f77b4; stroke: #1f77b4"/>
     <use xlink:href="#m486b062644" x="4310.360969" y="440.305455" style="fill: #1f77b4; stroke: #1f77b4"/>
     <use xlink:href="#m486b062644" x="4318.376565" y="207.490909" style="fill: #1f77b4; stroke: #1f77b4"/>
     <use xlink:href="#m486b062644" x="4326.392161" y="440.305455" style="fill: #1f77b4; stroke: #1f77b4"/>
     <use xlink:href="#m486b062644" x="4334.407757" y="457.876364" style="fill: #1f77b4; stroke: #1f77b4"/>
     <use xlink:href="#m486b062644" x="4342.423353" y="317.309091" style="fill: #1f77b4; stroke: #1f77b4"/>
     <use xlink:href="#m486b062644" x="4350.438949" y="176.741818" style="fill: #1f77b4; stroke: #1f77b4"/>
     <use xlink:href="#m486b062644" x="4358.454545" y="440.305455" style="fill: #1f77b4; stroke: #1f77b4"/>
    </g>
   </g>
   <g id="matplotlib.axis_1">
    <g id="xtick_1">
     <g id="line2d_1">
      <defs>
       <path id="m550362aeb8" d="M 0 0 
L 0 3.5 
" style="stroke: #000000; stroke-width: 0.8"/>
      </defs>
      <g>
       <use xlink:href="#m550362aeb8" x="807.545455" y="504" style="stroke: #000000; stroke-width: 0.8"/>
      </g>
     </g>
     <g id="text_1">
      <!-- 0 -->
      <g transform="translate(804.364205 518.598438) scale(0.1 -0.1)">
       <defs>
        <path id="DejaVuSans-30" d="M 2034 4250 
Q 1547 4250 1301 3770 
Q 1056 3291 1056 2328 
Q 1056 1369 1301 889 
Q 1547 409 2034 409 
Q 2525 409 2770 889 
Q 3016 1369 3016 2328 
Q 3016 3291 2770 3770 
Q 2525 4250 2034 4250 
z
M 2034 4750 
Q 2819 4750 3233 4129 
Q 3647 3509 3647 2328 
Q 3647 1150 3233 529 
Q 2819 -91 2034 -91 
Q 1250 -91 836 529 
Q 422 1150 422 2328 
Q 422 3509 836 4129 
Q 1250 4750 2034 4750 
z
" transform="scale(0.015625)"/>
       </defs>
       <use xlink:href="#DejaVuSans-30"/>
      </g>
     </g>
    </g>
    <g id="xtick_2">
     <g id="line2d_2">
      <g>
       <use xlink:href="#m550362aeb8" x="1609.105069" y="504" style="stroke: #000000; stroke-width: 0.8"/>
      </g>
     </g>
     <g id="text_2">
      <!-- 100 -->
      <g transform="translate(1599.561319 518.598438) scale(0.1 -0.1)">
       <defs>
        <path id="DejaVuSans-31" d="M 794 531 
L 1825 531 
L 1825 4091 
L 703 3866 
L 703 4441 
L 1819 4666 
L 2450 4666 
L 2450 531 
L 3481 531 
L 3481 0 
L 794 0 
L 794 531 
z
" transform="scale(0.015625)"/>
       </defs>
       <use xlink:href="#DejaVuSans-31"/>
       <use xlink:href="#DejaVuSans-30" x="63.623047"/>
       <use xlink:href="#DejaVuSans-30" x="127.246094"/>
      </g>
     </g>
    </g>
    <g id="xtick_3">
     <g id="line2d_3">
      <g>
       <use xlink:href="#m550362aeb8" x="2410.664683" y="504" style="stroke: #000000; stroke-width: 0.8"/>
      </g>
     </g>
     <g id="text_3">
      <!-- 200 -->
      <g transform="translate(2401.120933 518.598438) scale(0.1 -0.1)">
       <defs>
        <path id="DejaVuSans-32" d="M 1228 531 
L 3431 531 
L 3431 0 
L 469 0 
L 469 531 
Q 828 903 1448 1529 
Q 2069 2156 2228 2338 
Q 2531 2678 2651 2914 
Q 2772 3150 2772 3378 
Q 2772 3750 2511 3984 
Q 2250 4219 1831 4219 
Q 1534 4219 1204 4116 
Q 875 4013 500 3803 
L 500 4441 
Q 881 4594 1212 4672 
Q 1544 4750 1819 4750 
Q 2544 4750 2975 4387 
Q 3406 4025 3406 3419 
Q 3406 3131 3298 2873 
Q 3191 2616 2906 2266 
Q 2828 2175 2409 1742 
Q 1991 1309 1228 531 
z
" transform="scale(0.015625)"/>
       </defs>
       <use xlink:href="#DejaVuSans-32"/>
       <use xlink:href="#DejaVuSans-30" x="63.623047"/>
       <use xlink:href="#DejaVuSans-30" x="127.246094"/>
      </g>
     </g>
    </g>
    <g id="xtick_4">
     <g id="line2d_4">
      <g>
       <use xlink:href="#m550362aeb8" x="3212.224297" y="504" style="stroke: #000000; stroke-width: 0.8"/>
      </g>
     </g>
     <g id="text_4">
      <!-- 300 -->
      <g transform="translate(3202.680547 518.598438) scale(0.1 -0.1)">
       <defs>
        <path id="DejaVuSans-33" d="M 2597 2516 
Q 3050 2419 3304 2112 
Q 3559 1806 3559 1356 
Q 3559 666 3084 287 
Q 2609 -91 1734 -91 
Q 1441 -91 1130 -33 
Q 819 25 488 141 
L 488 750 
Q 750 597 1062 519 
Q 1375 441 1716 441 
Q 2309 441 2620 675 
Q 2931 909 2931 1356 
Q 2931 1769 2642 2001 
Q 2353 2234 1838 2234 
L 1294 2234 
L 1294 2753 
L 1863 2753 
Q 2328 2753 2575 2939 
Q 2822 3125 2822 3475 
Q 2822 3834 2567 4026 
Q 2313 4219 1838 4219 
Q 1578 4219 1281 4162 
Q 984 4106 628 3988 
L 628 4550 
Q 988 4650 1302 4700 
Q 1616 4750 1894 4750 
Q 2613 4750 3031 4423 
Q 3450 4097 3450 3541 
Q 3450 3153 3228 2886 
Q 3006 2619 2597 2516 
z
" transform="scale(0.015625)"/>
       </defs>
       <use xlink:href="#DejaVuSans-33"/>
       <use xlink:href="#DejaVuSans-30" x="63.623047"/>
       <use xlink:href="#DejaVuSans-30" x="127.246094"/>
      </g>
     </g>
    </g>
    <g id="xtick_5">
     <g id="line2d_5">
      <g>
       <use xlink:href="#m550362aeb8" x="4013.783911" y="504" style="stroke: #000000; stroke-width: 0.8"/>
      </g>
     </g>
     <g id="text_5">
      <!-- 400 -->
      <g transform="translate(4004.240161 518.598438) scale(0.1 -0.1)">
       <defs>
        <path id="DejaVuSans-34" d="M 2419 4116 
L 825 1625 
L 2419 1625 
L 2419 4116 
z
M 2253 4666 
L 3047 4666 
L 3047 1625 
L 3713 1625 
L 3713 1100 
L 3047 1100 
L 3047 0 
L 2419 0 
L 2419 1100 
L 313 1100 
L 313 1709 
L 2253 4666 
z
" transform="scale(0.015625)"/>
       </defs>
       <use xlink:href="#DejaVuSans-34"/>
       <use xlink:href="#DejaVuSans-30" x="63.623047"/>
       <use xlink:href="#DejaVuSans-30" x="127.246094"/>
      </g>
     </g>
    </g>
    <g id="text_6">
     <!-- Amino Acids -->
     <g transform="translate(2490.759375 547.473438) scale(0.3 -0.3)">
      <defs>
       <path id="DejaVuSans-41" d="M 2188 4044 
L 1331 1722 
L 3047 1722 
L 2188 4044 
z
M 1831 4666 
L 2547 4666 
L 4325 0 
L 3669 0 
L 3244 1197 
L 1141 1197 
L 716 0 
L 50 0 
L 1831 4666 
z
" transform="scale(0.015625)"/>
       <path id="DejaVuSans-6d" d="M 3328 2828 
Q 3544 3216 3844 3400 
Q 4144 3584 4550 3584 
Q 5097 3584 5394 3201 
Q 5691 2819 5691 2113 
L 5691 0 
L 5113 0 
L 5113 2094 
Q 5113 2597 4934 2840 
Q 4756 3084 4391 3084 
Q 3944 3084 3684 2787 
Q 3425 2491 3425 1978 
L 3425 0 
L 2847 0 
L 2847 2094 
Q 2847 2600 2669 2842 
Q 2491 3084 2119 3084 
Q 1678 3084 1418 2786 
Q 1159 2488 1159 1978 
L 1159 0 
L 581 0 
L 581 3500 
L 1159 3500 
L 1159 2956 
Q 1356 3278 1631 3431 
Q 1906 3584 2284 3584 
Q 2666 3584 2933 3390 
Q 3200 3197 3328 2828 
z
" transform="scale(0.015625)"/>
       <path id="DejaVuSans-69" d="M 603 3500 
L 1178 3500 
L 1178 0 
L 603 0 
L 603 3500 
z
M 603 4863 
L 1178 4863 
L 1178 4134 
L 603 4134 
L 603 4863 
z
" transform="scale(0.015625)"/>
       <path id="DejaVuSans-6e" d="M 3513 2113 
L 3513 0 
L 2938 0 
L 2938 2094 
Q 2938 2591 2744 2837 
Q 2550 3084 2163 3084 
Q 1697 3084 1428 2787 
Q 1159 2491 1159 1978 
L 1159 0 
L 581 0 
L 581 3500 
L 1159 3500 
L 1159 2956 
Q 1366 3272 1645 3428 
Q 1925 3584 2291 3584 
Q 2894 3584 3203 3211 
Q 3513 2838 3513 2113 
z
" transform="scale(0.015625)"/>
       <path id="DejaVuSans-6f" d="M 1959 3097 
Q 1497 3097 1228 2736 
Q 959 2375 959 1747 
Q 959 1119 1226 758 
Q 1494 397 1959 397 
Q 2419 397 2687 759 
Q 2956 1122 2956 1747 
Q 2956 2369 2687 2733 
Q 2419 3097 1959 3097 
z
M 1959 3584 
Q 2709 3584 3137 3096 
Q 3566 2609 3566 1747 
Q 3566 888 3137 398 
Q 2709 -91 1959 -91 
Q 1206 -91 779 398 
Q 353 888 353 1747 
Q 353 2609 779 3096 
Q 1206 3584 1959 3584 
z
" transform="scale(0.015625)"/>
       <path id="DejaVuSans-20" transform="scale(0.015625)"/>
       <path id="DejaVuSans-63" d="M 3122 3366 
L 3122 2828 
Q 2878 2963 2633 3030 
Q 2388 3097 2138 3097 
Q 1578 3097 1268 2742 
Q 959 2388 959 1747 
Q 959 1106 1268 751 
Q 1578 397 2138 397 
Q 2388 397 2633 464 
Q 2878 531 3122 666 
L 3122 134 
Q 2881 22 2623 -34 
Q 2366 -91 2075 -91 
Q 1284 -91 818 406 
Q 353 903 353 1747 
Q 353 2603 823 3093 
Q 1294 3584 2113 3584 
Q 2378 3584 2631 3529 
Q 2884 3475 3122 3366 
z
" transform="scale(0.015625)"/>
       <path id="DejaVuSans-64" d="M 2906 2969 
L 2906 4863 
L 3481 4863 
L 3481 0 
L 2906 0 
L 2906 525 
Q 2725 213 2448 61 
Q 2172 -91 1784 -91 
Q 1150 -91 751 415 
Q 353 922 353 1747 
Q 353 2572 751 3078 
Q 1150 3584 1784 3584 
Q 2172 3584 2448 3432 
Q 2725 3281 2906 2969 
z
M 947 1747 
Q 947 1113 1208 752 
Q 1469 391 1925 391 
Q 2381 391 2643 752 
Q 2906 1113 2906 1747 
Q 2906 2381 2643 2742 
Q 2381 3103 1925 3103 
Q 1469 3103 1208 2742 
Q 947 2381 947 1747 
z
" transform="scale(0.015625)"/>
       <path id="DejaVuSans-73" d="M 2834 3397 
L 2834 2853 
Q 2591 2978 2328 3040 
Q 2066 3103 1784 3103 
Q 1356 3103 1142 2972 
Q 928 2841 928 2578 
Q 928 2378 1081 2264 
Q 1234 2150 1697 2047 
L 1894 2003 
Q 2506 1872 2764 1633 
Q 3022 1394 3022 966 
Q 3022 478 2636 193 
Q 2250 -91 1575 -91 
Q 1294 -91 989 -36 
Q 684 19 347 128 
L 347 722 
Q 666 556 975 473 
Q 1284 391 1588 391 
Q 1994 391 2212 530 
Q 2431 669 2431 922 
Q 2431 1156 2273 1281 
Q 2116 1406 1581 1522 
L 1381 1569 
Q 847 1681 609 1914 
Q 372 2147 372 2553 
Q 372 3047 722 3315 
Q 1072 3584 1716 3584 
Q 2034 3584 2315 3537 
Q 2597 3491 2834 3397 
z
" transform="scale(0.015625)"/>
      </defs>
      <use xlink:href="#DejaVuSans-41"/>
      <use xlink:href="#DejaVuSans-6d" x="68.408203"/>
      <use xlink:href="#DejaVuSans-69" x="165.820312"/>
      <use xlink:href="#DejaVuSans-6e" x="193.603516"/>
      <use xlink:href="#DejaVuSans-6f" x="256.982422"/>
      <use xlink:href="#DejaVuSans-20" x="318.164062"/>
      <use xlink:href="#DejaVuSans-41" x="349.951172"/>
      <use xlink:href="#DejaVuSans-63" x="416.609375"/>
      <use xlink:href="#DejaVuSans-69" x="471.589844"/>
      <use xlink:href="#DejaVuSans-64" x="499.373047"/>
      <use xlink:href="#DejaVuSans-73" x="562.849609"/>
     </g>
    </g>
   </g>
   <g id="matplotlib.axis_2">
    <g id="ytick_1">
     <g id="line2d_6">
      <defs>
       <path id="m8368616257" d="M 0 0 
L -3.5 0 
" style="stroke: #000000; stroke-width: 0.8"/>
      </defs>
      <g>
       <use xlink:href="#m8368616257" x="630" y="462.269091" style="stroke: #000000; stroke-width: 0.8"/>
      </g>
     </g>
     <g id="text_7">
      <!-- 4 -->
      <g transform="translate(608.257812 466.06831) scale(0.1 -0.1)">
       <defs>
        <path id="DejaVuSans-2212" d="M 678 2272 
L 4684 2272 
L 4684 1741 
L 678 1741 
L 678 2272 
z
" transform="scale(0.015625)"/>
       </defs>
       <use xlink:href="#DejaVuSans-2212"/>
       <use xlink:href="#DejaVuSans-34" x="83.789062"/>
      </g>
     </g>
    </g>
    <g id="ytick_2">
     <g id="line2d_7">
      <g>
       <use xlink:href="#m8368616257" x="630" y="374.414545" style="stroke: #000000; stroke-width: 0.8"/>
      </g>
     </g>
     <g id="text_8">
      <!-- 2 -->
      <g transform="translate(608.257812 378.213764) scale(0.1 -0.1)">
       <use xlink:href="#DejaVuSans-2212"/>
       <use xlink:href="#DejaVuSans-32" x="83.789062"/>
      </g>
     </g>
    </g>
    <g id="ytick_3">
     <g id="line2d_8">
      <g>
       <use xlink:href="#m8368616257" x="630" y="286.56" style="stroke: #000000; stroke-width: 0.8"/>
      </g>
     </g>
     <g id="text_9">
      <!-- 0 -->
      <g transform="translate(616.6375 290.359219) scale(0.1 -0.1)">
       <use xlink:href="#DejaVuSans-30"/>
      </g>
     </g>
    </g>
    <g id="ytick_4">
     <g id="line2d_9">
      <g>
       <use xlink:href="#m8368616257" x="630" y="198.705455" style="stroke: #000000; stroke-width: 0.8"/>
      </g>
     </g>
     <g id="text_10">
      <!-- 2 -->
      <g transform="translate(616.6375 202.504673) scale(0.1 -0.1)">
       <use xlink:href="#DejaVuSans-32"/>
      </g>
     </g>
    </g>
    <g id="ytick_5">
     <g id="line2d_10">
      <g>
       <use xlink:href="#m8368616257" x="630" y="110.850909" style="stroke: #000000; stroke-width: 0.8"/>
      </g>
     </g>
     <g id="text_11">
      <!-- 4 -->
      <g transform="translate(616.6375 114.650128) scale(0.1 -0.1)">
       <use xlink:href="#DejaVuSans-34"/>
      </g>
     </g>
    </g>
    <g id="text_12">
     <!-- Hydrophobicity -->
     <g transform="translate(598.01875 400.318594) rotate(-90) scale(0.3 -0.3)">
      <defs>
       <path id="DejaVuSans-48" d="M 628 4666 
L 1259 4666 
L 1259 2753 
L 3553 2753 
L 3553 4666 
L 4184 4666 
L 4184 0 
L 3553 0 
L 3553 2222 
L 1259 2222 
L 1259 0 
L 628 0 
L 628 4666 
z
" transform="scale(0.015625)"/>
       <path id="DejaVuSans-79" d="M 2059 -325 
Q 1816 -950 1584 -1140 
Q 1353 -1331 966 -1331 
L 506 -1331 
L 506 -850 
L 844 -850 
Q 1081 -850 1212 -737 
Q 1344 -625 1503 -206 
L 1606 56 
L 191 3500 
L 800 3500 
L 1894 763 
L 2988 3500 
L 3597 3500 
L 2059 -325 
z
" transform="scale(0.015625)"/>
       <path id="DejaVuSans-72" d="M 2631 2963 
Q 2534 3019 2420 3045 
Q 2306 3072 2169 3072 
Q 1681 3072 1420 2755 
Q 1159 2438 1159 1844 
L 1159 0 
L 581 0 
L 581 3500 
L 1159 3500 
L 1159 2956 
Q 1341 3275 1631 3429 
Q 1922 3584 2338 3584 
Q 2397 3584 2469 3576 
Q 2541 3569 2628 3553 
L 2631 2963 
z
" transform="scale(0.015625)"/>
       <path id="DejaVuSans-70" d="M 1159 525 
L 1159 -1331 
L 581 -1331 
L 581 3500 
L 1159 3500 
L 1159 2969 
Q 1341 3281 1617 3432 
Q 1894 3584 2278 3584 
Q 2916 3584 3314 3078 
Q 3713 2572 3713 1747 
Q 3713 922 3314 415 
Q 2916 -91 2278 -91 
Q 1894 -91 1617 61 
Q 1341 213 1159 525 
z
M 3116 1747 
Q 3116 2381 2855 2742 
Q 2594 3103 2138 3103 
Q 1681 3103 1420 2742 
Q 1159 2381 1159 1747 
Q 1159 1113 1420 752 
Q 1681 391 2138 391 
Q 2594 391 2855 752 
Q 3116 1113 3116 1747 
z
" transform="scale(0.015625)"/>
       <path id="DejaVuSans-68" d="M 3513 2113 
L 3513 0 
L 2938 0 
L 2938 2094 
Q 2938 2591 2744 2837 
Q 2550 3084 2163 3084 
Q 1697 3084 1428 2787 
Q 1159 2491 1159 1978 
L 1159 0 
L 581 0 
L 581 4863 
L 1159 4863 
L 1159 2956 
Q 1366 3272 1645 3428 
Q 1925 3584 2291 3584 
Q 2894 3584 3203 3211 
Q 3513 2838 3513 2113 
z
" transform="scale(0.015625)"/>
       <path id="DejaVuSans-62" d="M 3116 1747 
Q 3116 2381 2855 2742 
Q 2594 3103 2138 3103 
Q 1681 3103 1420 2742 
Q 1159 2381 1159 1747 
Q 1159 1113 1420 752 
Q 1681 391 2138 391 
Q 2594 391 2855 752 
Q 3116 1113 3116 1747 
z
M 1159 2969 
Q 1341 3281 1617 3432 
Q 1894 3584 2278 3584 
Q 2916 3584 3314 3078 
Q 3713 2572 3713 1747 
Q 3713 922 3314 415 
Q 2916 -91 2278 -91 
Q 1894 -91 1617 61 
Q 1341 213 1159 525 
L 1159 0 
L 581 0 
L 581 4863 
L 1159 4863 
L 1159 2969 
z
" transform="scale(0.015625)"/>
       <path id="DejaVuSans-74" d="M 1172 4494 
L 1172 3500 
L 2356 3500 
L 2356 3053 
L 1172 3053 
L 1172 1153 
Q 1172 725 1289 603 
Q 1406 481 1766 481 
L 2356 481 
L 2356 0 
L 1766 0 
Q 1100 0 847 248 
Q 594 497 594 1153 
L 594 3053 
L 172 3053 
L 172 3500 
L 594 3500 
L 594 4494 
L 1172 4494 
z
" transform="scale(0.015625)"/>
      </defs>
      <use xlink:href="#DejaVuSans-48"/>
      <use xlink:href="#DejaVuSans-79" x="75.195312"/>
      <use xlink:href="#DejaVuSans-64" x="134.375"/>
      <use xlink:href="#DejaVuSans-72" x="197.851562"/>
      <use xlink:href="#DejaVuSans-6f" x="236.714844"/>
      <use xlink:href="#DejaVuSans-70" x="297.896484"/>
      <use xlink:href="#DejaVuSans-68" x="361.373047"/>
      <use xlink:href="#DejaVuSans-6f" x="424.751953"/>
      <use xlink:href="#DejaVuSans-62" x="485.933594"/>
      <use xlink:href="#DejaVuSans-69" x="549.410156"/>
      <use xlink:href="#DejaVuSans-63" x="577.193359"/>
      <use xlink:href="#DejaVuSans-69" x="632.173828"/>
      <use xlink:href="#DejaVuSans-74" x="659.957031"/>
      <use xlink:href="#DejaVuSans-79" x="699.166016"/>
     </g>
    </g>
   </g>
   <g id="line2d_11">
    <path d="M 807.545455 203.098182 
L 815.561051 440.305455 
L 823.576647 440.305455 
L 831.592243 207.490909 
L 839.607839 163.563636 
L 847.623435 321.701818 
L 855.639031 440.305455 
L 863.654628 440.305455 
L 871.670224 304.130909 
L 879.68582 321.701818 
L 887.701416 207.490909 
L 895.717012 440.305455 
L 903.732608 356.843636 
L 911.748204 484.232727 
L 919.763801 427.127273 
L 927.779397 440.305455 
L 935.794993 207.490909 
L 943.810589 440.305455 
L 951.826185 484.232727 
L 959.841781 356.843636 
L 967.857377 207.490909 
L 975.872974 119.636364 
L 983.88857 207.490909 
L 991.904166 356.843636 
L 999.919762 484.232727 
L 1007.935358 321.701818 
L 1015.950954 440.305455 
L 1023.96655 304.130909 
L 1031.982147 163.563636 
L 1039.997743 440.305455 
L 1048.013339 88.887273 
L 1056.028935 427.127273 
L 1064.044531 317.309091 
L 1072.060127 343.665455 
L 1080.075723 427.127273 
L 1088.09132 356.843636 
L 1096.106916 440.305455 
L 1104.122512 163.563636 
L 1112.138108 102.065455 
L 1120.153704 207.490909 
L 1128.1693 440.305455 
L 1136.184896 356.843636 
L 1144.200493 343.665455 
L 1152.216089 356.843636 
L 1160.231685 119.636364 
L 1168.247281 119.636364 
L 1176.262877 484.232727 
L 1184.278473 119.636364 
L 1192.294069 88.887273 
L 1200.309666 484.232727 
L 1208.325262 321.701818 
L 1216.340858 484.232727 
L 1224.356454 207.490909 
L 1232.37205 356.843636 
L 1240.387646 102.065455 
L 1248.403242 176.741818 
L 1256.418838 484.232727 
L 1264.434435 440.305455 
L 1272.450031 440.305455 
L 1280.465627 207.490909 
L 1288.481223 321.701818 
L 1296.496819 88.887273 
L 1304.512415 326.094545 
L 1312.528011 326.094545 
L 1320.543608 88.887273 
L 1328.559204 321.701818 
L 1336.5748 484.232727 
L 1344.590396 343.665455 
L 1352.605992 207.490909 
L 1360.621588 440.305455 
L 1368.637184 102.065455 
L 1376.652781 321.701818 
L 1384.668377 207.490909 
L 1392.683973 176.741818 
L 1400.699569 119.636364 
L 1408.715165 484.232727 
L 1416.730761 440.305455 
L 1424.746357 484.232727 
L 1432.761954 484.232727 
L 1440.77755 163.563636 
L 1448.793146 321.701818 
L 1456.808742 207.490909 
L 1464.824338 440.305455 
L 1472.839934 356.843636 
L 1480.85553 207.490909 
L 1488.871127 484.232727 
L 1496.886723 119.636364 
L 1504.902319 304.130909 
L 1512.917915 207.490909 
L 1520.933511 207.490909 
L 1528.949107 304.130909 
L 1536.964703 102.065455 
L 1544.9803 484.232727 
L 1552.995896 440.305455 
L 1561.011492 304.130909 
L 1569.027088 304.130909 
L 1577.042684 207.490909 
L 1585.05828 321.701818 
L 1593.073876 326.094545 
L 1601.089473 163.563636 
L 1609.105069 304.130909 
L 1617.120665 427.127273 
L 1625.136261 440.305455 
L 1633.151857 440.305455 
L 1641.167453 119.636364 
L 1649.183049 440.305455 
L 1657.198646 356.843636 
L 1665.214242 119.636364 
L 1673.229838 207.490909 
L 1681.245434 484.232727 
L 1689.26103 163.563636 
L 1697.276626 343.665455 
L 1705.292222 440.305455 
L 1713.307819 440.305455 
L 1721.323415 163.563636 
L 1729.339011 203.098182 
L 1737.354607 119.636364 
L 1745.370203 163.563636 
L 1753.385799 440.305455 
L 1761.401395 440.305455 
L 1769.416992 207.490909 
L 1777.432588 356.843636 
L 1785.448184 484.232727 
L 1793.46378 427.127273 
L 1801.479376 317.309091 
L 1809.494972 484.232727 
L 1817.510568 119.636364 
L 1825.526165 484.232727 
L 1833.541761 484.232727 
L 1841.557357 119.636364 
L 1857.588549 207.490909 
L 1865.604145 356.843636 
L 1873.619741 207.490909 
L 1881.635338 163.563636 
L 1889.650934 304.130909 
L 1897.66653 356.843636 
L 1905.682126 440.305455 
L 1913.697722 207.490909 
L 1921.713318 102.065455 
L 1929.728914 484.232727 
L 1937.744511 484.232727 
L 1945.760107 326.094545 
L 1953.775703 440.305455 
L 1961.791299 207.490909 
L 1969.806895 484.232727 
L 1977.822491 88.887273 
L 1985.838087 440.305455 
L 1993.853684 102.065455 
L 2001.86928 119.636364 
L 2009.884876 102.065455 
L 2017.900472 440.305455 
L 2025.916068 440.305455 
L 2033.931664 119.636364 
L 2041.94726 119.636364 
L 2049.962857 440.305455 
L 2057.978453 321.701818 
L 2065.994049 119.636364 
L 2074.009645 119.636364 
L 2082.025241 440.305455 
L 2090.040837 484.232727 
L 2098.056433 484.232727 
L 2106.07203 440.305455 
L 2114.087626 356.843636 
L 2122.103222 440.305455 
L 2130.118818 119.636364 
L 2138.134414 119.636364 
L 2146.15001 484.232727 
L 2154.165606 440.305455 
L 2162.181203 163.563636 
L 2170.196799 207.490909 
L 2178.212395 440.305455 
L 2186.227991 356.843636 
L 2194.243587 119.636364 
L 2202.259183 317.309091 
L 2210.274779 88.887273 
L 2218.290376 484.232727 
L 2226.305972 102.065455 
L 2234.321568 207.490909 
L 2242.337164 207.490909 
L 2250.35276 440.305455 
L 2258.368356 119.636364 
L 2266.383952 163.563636 
L 2274.399549 304.130909 
L 2282.415145 163.563636 
L 2290.430741 356.843636 
L 2298.446337 484.232727 
L 2306.461933 440.305455 
L 2314.477529 440.305455 
L 2322.493125 317.309091 
L 2330.508722 304.130909 
L 2338.524318 440.305455 
L 2346.539914 119.636364 
L 2354.55551 119.636364 
L 2362.571106 356.843636 
L 2370.586702 326.094545 
L 2378.602298 304.130909 
L 2386.617895 484.232727 
L 2394.633491 440.305455 
L 2402.649087 119.636364 
L 2410.664683 207.490909 
L 2418.680279 207.490909 
L 2426.695875 304.130909 
L 2434.711471 119.636364 
L 2442.727068 440.305455 
L 2450.742664 119.636364 
L 2458.75826 207.490909 
L 2466.773856 207.490909 
L 2474.789452 321.701818 
L 2482.805048 427.127273 
L 2490.820644 304.130909 
L 2498.836241 440.305455 
L 2506.851837 207.490909 
L 2514.867433 304.130909 
L 2522.883029 440.305455 
L 2530.898625 88.887273 
L 2538.914221 440.305455 
L 2546.929817 484.232727 
L 2554.945414 321.701818 
L 2562.96101 207.490909 
L 2570.976606 102.065455 
L 2578.992202 207.490909 
L 2587.007798 163.563636 
L 2595.023394 321.701818 
L 2603.03899 440.305455 
L 2611.054586 343.665455 
L 2619.070183 119.636364 
L 2627.085779 440.305455 
L 2635.101375 484.232727 
L 2643.116971 440.305455 
L 2651.132567 207.490909 
L 2659.148163 484.232727 
L 2667.163759 304.130909 
L 2675.179356 326.094545 
L 2683.194952 321.701818 
L 2691.210548 440.305455 
L 2699.226144 304.130909 
L 2707.24174 321.701818 
L 2715.257336 321.701818 
L 2723.272932 484.232727 
L 2731.288529 356.843636 
L 2739.304125 356.843636 
L 2747.319721 321.701818 
L 2755.335317 304.130909 
L 2763.350913 207.490909 
L 2771.366509 207.490909 
L 2779.382105 356.843636 
L 2787.397702 321.701818 
L 2795.413298 88.887273 
L 2803.428894 119.636364 
L 2811.44449 440.305455 
L 2819.460086 304.130909 
L 2827.475682 207.490909 
L 2835.491278 207.490909 
L 2843.506875 203.098182 
L 2851.522471 119.636364 
L 2859.538067 440.305455 
L 2867.553663 207.490909 
L 2875.569259 304.130909 
L 2883.584855 119.636364 
L 2891.600451 304.130909 
L 2899.616048 119.636364 
L 2907.631644 440.305455 
L 2915.64724 440.305455 
L 2923.662836 119.636364 
L 2931.678432 102.065455 
L 2939.694028 207.490909 
L 2947.709624 207.490909 
L 2955.725221 343.665455 
L 2963.740817 207.490909 
L 2971.756413 203.098182 
L 2979.772009 102.065455 
L 2987.787605 163.563636 
L 2995.803201 203.098182 
L 3003.818797 207.490909 
L 3011.834394 207.490909 
L 3019.84999 163.563636 
L 3027.865586 440.305455 
L 3035.881182 317.309091 
L 3043.896778 317.309091 
L 3051.912374 88.887273 
L 3059.92797 321.701818 
L 3067.943567 203.098182 
L 3075.959163 102.065455 
L 3083.974759 304.130909 
L 3091.990355 440.305455 
L 3100.005951 207.490909 
L 3108.021547 317.309091 
L 3116.037143 119.636364 
L 3124.05274 207.490909 
L 3132.068336 119.636364 
L 3140.083932 119.636364 
L 3148.099528 317.309091 
L 3156.115124 427.127273 
L 3164.13072 356.843636 
L 3172.146316 440.305455 
L 3180.161913 440.305455 
L 3188.177509 119.636364 
L 3196.193105 440.305455 
L 3204.208701 119.636364 
L 3212.224297 119.636364 
L 3220.239893 484.232727 
L 3228.255489 484.232727 
L 3236.271086 176.741818 
L 3244.286682 356.843636 
L 3252.302278 440.305455 
L 3260.317874 119.636364 
L 3268.33347 207.490909 
L 3276.349066 207.490909 
L 3284.364662 440.305455 
L 3292.380259 207.490909 
L 3300.395855 102.065455 
L 3308.411451 440.305455 
L 3316.427047 440.305455 
L 3324.442643 119.636364 
L 3332.458239 119.636364 
L 3340.473835 484.232727 
L 3348.489432 163.563636 
L 3356.505028 440.305455 
L 3364.520624 304.130909 
L 3372.53622 207.490909 
L 3380.551816 102.065455 
L 3388.567412 484.232727 
L 3396.583008 304.130909 
L 3404.598605 304.130909 
L 3412.614201 102.065455 
L 3420.629797 484.232727 
L 3428.645393 176.741818 
L 3436.660989 317.309091 
L 3444.676585 119.636364 
L 3452.692181 440.305455 
L 3460.707778 440.305455 
L 3468.723374 102.065455 
L 3476.73897 440.305455 
L 3484.754566 88.887273 
L 3492.770162 304.130909 
L 3500.785758 304.130909 
L 3508.801354 440.305455 
L 3516.816951 484.232727 
L 3524.832547 88.887273 
L 3532.848143 356.843636 
L 3540.863739 356.843636 
L 3548.879335 304.130909 
L 3556.894931 440.305455 
L 3564.910527 457.876364 
L 3572.926124 102.065455 
L 3580.94172 326.094545 
L 3588.957316 119.636364 
L 3596.972912 321.701818 
L 3604.988508 163.563636 
L 3613.004104 119.636364 
L 3621.0197 207.490909 
L 3629.035297 207.490909 
L 3637.050893 440.305455 
L 3645.066489 484.232727 
L 3653.082085 440.305455 
L 3661.097681 356.843636 
L 3669.113277 440.305455 
L 3677.128873 203.098182 
L 3685.14447 163.563636 
L 3693.160066 207.490909 
L 3701.175662 207.490909 
L 3709.191258 356.843636 
L 3717.206854 440.305455 
L 3725.22245 484.232727 
L 3733.238046 119.636364 
L 3741.253643 440.305455 
L 3749.269239 119.636364 
L 3757.284835 440.305455 
L 3765.300431 484.232727 
L 3773.316027 207.490909 
L 3781.331623 440.305455 
L 3789.347219 207.490909 
L 3797.362816 457.876364 
L 3805.378412 440.305455 
L 3813.394008 427.127273 
L 3821.409604 102.065455 
L 3829.4252 207.490909 
L 3837.440796 163.563636 
L 3845.456392 207.490909 
L 3853.471989 427.127273 
L 3861.487585 304.130909 
L 3869.503181 356.843636 
L 3877.518777 427.127273 
L 3885.534373 343.665455 
L 3893.549969 176.741818 
L 3901.565565 119.636364 
L 3909.581162 304.130909 
L 3917.596758 207.490909 
L 3925.612354 343.665455 
L 3933.62795 119.636364 
L 3941.643546 207.490909 
L 3949.659142 484.232727 
L 3957.674738 119.636364 
L 3965.690334 440.305455 
L 3973.705931 119.636364 
L 3981.721527 440.305455 
L 3989.737123 176.741818 
L 3997.752719 207.490909 
L 4005.768315 119.636364 
L 4013.783911 484.232727 
L 4021.799507 304.130909 
L 4029.815104 119.636364 
L 4037.8307 102.065455 
L 4045.846296 484.232727 
L 4061.877488 484.232727 
L 4069.893084 163.563636 
L 4077.90868 207.490909 
L 4085.924277 119.636364 
L 4093.939873 207.490909 
L 4101.955469 321.701818 
L 4109.971065 440.305455 
L 4117.986661 356.843636 
L 4126.002257 317.309091 
L 4134.017853 440.305455 
L 4142.03345 119.636364 
L 4150.049046 484.232727 
L 4158.064642 326.094545 
L 4166.080238 484.232727 
L 4174.095834 484.232727 
L 4182.11143 321.701818 
L 4190.127026 321.701818 
L 4198.142623 102.065455 
L 4206.158219 163.563636 
L 4214.173815 484.232727 
L 4222.189411 317.309091 
L 4230.205007 119.636364 
L 4238.220603 440.305455 
L 4246.236199 484.232727 
L 4254.251796 119.636364 
L 4262.267392 356.843636 
L 4270.282988 88.887273 
L 4278.298584 102.065455 
L 4286.31418 356.843636 
L 4294.329776 440.305455 
L 4302.345372 304.130909 
L 4310.360969 440.305455 
L 4318.376565 207.490909 
L 4326.392161 440.305455 
L 4334.407757 457.876364 
L 4350.438949 176.741818 
L 4358.454545 440.305455 
L 4358.454545 440.305455 
" clip-path="url(#pce22ad2d9c)" style="fill: none; stroke: #1f77b4; stroke-width: 1.5; stroke-linecap: square"/>
   </g>
   <g id="patch_3">
    <path d="M 630 504 
L 630 69.12 
" style="fill: none; stroke: #000000; stroke-width: 0.8; stroke-linejoin: miter; stroke-linecap: square"/>
   </g>
   <g id="patch_4">
    <path d="M 4536 504 
L 4536 69.12 
" style="fill: none; stroke: #000000; stroke-width: 0.8; stroke-linejoin: miter; stroke-linecap: square"/>
   </g>
   <g id="patch_5">
    <path d="M 630 504 
L 4536 504 
" style="fill: none; stroke: #000000; stroke-width: 0.8; stroke-linejoin: miter; stroke-linecap: square"/>
   </g>
   <g id="patch_6">
    <path d="M 630 69.12 
L 4536 69.12 
" style="fill: none; stroke: #000000; stroke-width: 0.8; stroke-linejoin: miter; stroke-linecap: square"/>
   </g>
  </g>
 </g>
 <defs>
  <clipPath id="pce22ad2d9c">
   <rect x="630" y="69.12" width="3906" height="434.88"/>
  </clipPath>
 </defs>
</svg>
